<svg width="17" height="18" viewBox="0 0 17 18" fill="none" xmlns="http://www.w3.org/2000/svg">
<path d="M6.75028 0.53125C10.4197 0.53125 13.3924 3.50398 13.3924 7.1734C13.3924 8.75954 12.8378 10.2138 11.9111 11.3569L16.4768 15.9225C16.7473 16.1931 16.7473 16.6293 16.4768 16.8999C16.2062 17.1704 15.7699 17.1704 15.4994 16.8999L10.9338 12.3343C9.79065 13.2609 8.33641 13.8156 6.75028 13.8156C3.08086 13.8156 0.108124 10.8428 0.108124 7.1734C0.108124 3.50398 3.08424 0.53125 6.75028 0.53125ZM6.75028 12.4357C9.65537 12.4357 12.0126 10.0785 12.0126 7.1734C12.0126 4.26831 9.65537 1.91109 6.75028 1.91109C3.84518 1.91109 1.48796 4.26831 1.48796 7.1734C1.48796 10.0785 3.84518 12.4357 6.75028 12.4357Z" fill="#FBD846"/>
</svg>
