<svg width="50" height="51" viewBox="0 0 50 51" fill="none" xmlns="http://www.w3.org/2000/svg">
<circle cx="25" cy="25.6113" r="25" fill="#FBD846"/>
<path d="M20.3333 16.1236V32.9505C20.3333 32.9505 20.0233 36.482 24.5683 36.482C28.6667 36.482 28.6667 32.9505 28.6667 32.9505V15.2532C28.6667 15.2532 28.6667 10.6113 22.8333 10.6113C17 10.6113 17 15.2532 17 15.2532V32.9505C17 32.9505 17 39.6233 24.5 39.6233C32 39.6233 32 32.9505 32 32.9505V15.2532C32 14.5279 30.3333 14.5279 30.3333 15.2532V32.9505C30.3333 32.9505 30.94 38.3045 24.5 38.3045C18.6667 38.3045 18.6667 32.9505 18.6667 32.9505V15.2532C18.6667 15.2532 18.6667 11.9301 22.8333 11.9301C27 11.9301 27 15.2532 27 15.2532V32.9505C27 32.9505 27 35.0315 24.5683 35.0315C22.1367 35.0315 22 32.9505 22 32.9505V16.1236C22 15.3983 20.3333 15.3983 20.3333 16.1236Z" fill="white"/>
</svg>
